<?xml version="1.0" encoding="iso-8859-1"?>
<!-- Uploaded to: SVG Repo, www.svgrepo.com, Generator: SVG Repo Mixer Tools -->
<!DOCTYPE svg PUBLIC "-//W3C//DTD SVG 1.1//EN" "http://www.w3.org/Graphics/SVG/1.1/DTD/svg11.dtd">
<svg fill="#000000" height="800px" width="800px" version="1.1" id="Capa_1" xmlns="http://www.w3.org/2000/svg" xmlns:xlink="http://www.w3.org/1999/xlink" 
	 viewBox="0 0 405.357 405.357" xml:space="preserve">
<path d="M394.357,204.417c-1.216-0.238-23.027-4.458-52.295-6.616c0.142-2.689,0.217-5.396,0.217-8.121
	c0-84.192-68.496-152.688-152.688-152.688c-84.193,0-152.69,68.496-152.69,152.688c0,17.751,3.056,34.798,8.649,50.659
	c-19.522,1.643-33.711,4.388-34.55,4.553l-11,2.157l4.791,10.134c1.477,3.125,36.686,76.783,80.787,99.065
	c15.915,8.04,30.8,12.117,44.243,12.119c0.003,0,0.004,0,0.006,0c20.021,0,36.416-9.044,46.732-25.609
	c13.534,16.171,32.582,24.884,55.124,24.884c17.957,0,37.921-5.485,59.336-16.304c59.619-30.122,107.536-130.375,109.547-134.629
	l4.791-10.134L394.357,204.417z M315.388,140.031c-5.755-4.712-12.383-9.122-19.845-13.163c-9.235-5.002-19.452-9.262-30.387-12.751
	c-3.489-10.937-7.749-21.154-12.753-30.391c-4.041-7.461-8.45-14.089-13.163-19.844C273.94,77.627,301.645,105.332,315.388,140.031z
	 M323.705,180.955h-47.559c-0.501-16.042-2.389-31.621-5.546-46.289C298.94,145.74,318.893,162.32,323.705,180.955z M198.316,55.565
	c18.636,4.813,35.216,24.767,46.291,53.107c-14.669-3.157-30.247-5.044-46.291-5.546V55.565z M198.316,120.582
	c18.761,0.646,36.62,3.355,52.694,7.679c4.324,16.075,7.033,33.933,7.68,52.693h-60.374V120.582z M198.316,198.405h60.374
	c-0.027,0.771-0.056,1.542-0.089,2.31c-14.552,2.7-27.128,6.702-37.613,11.999c-8.372,4.229-15.931,8.743-22.672,13.527V198.405z
	 M180.865,55.565v47.561c-16.043,0.502-31.622,2.389-46.291,5.546C145.649,80.332,162.23,60.378,180.865,55.565z M180.865,120.582
	v60.373h-60.374c0.646-18.76,3.355-36.619,7.68-52.694C144.245,123.937,162.105,121.229,180.865,120.582z M139.94,63.884
	c-4.713,5.755-9.122,12.383-13.163,19.844c-5.003,9.236-9.263,19.454-12.752,30.39c-10.937,3.49-21.153,7.749-30.39,12.752
	c-7.461,4.041-14.089,8.45-19.844,13.162C77.536,105.331,105.24,77.627,139.94,63.884z M108.581,134.665
	c-3.157,14.669-5.045,30.247-5.546,46.29H55.475C60.287,162.32,80.241,145.74,108.581,134.665z M103.035,198.405
	c0.468,14.964,2.138,29.525,4.922,43.321c-2.989-0.499-6.083-0.929-9.283-1.284c-23.04-10.862-38.97-25.656-43.199-42.037H103.035z
	 M157.417,339.265c-5.787,6.386-14.519,11.65-27.59,11.65h-0.004c-10.685-0.001-22.924-3.447-36.376-10.243
	c-29.693-15.003-56.48-60.004-67.527-80.536c11.003-1.574,28.615-3.564,47.309-3.564c24.886,0,44.258,3.412,57.579,10.142
	c12.003,6.063,21.188,12.85,27.489,20.163c-1.253,12.721,1.173,25.744,7.249,38.511l-88.215-41.304L157.417,339.265z
	 M145.958,255.082c-2.332-1.349-4.753-2.666-7.282-3.944c-3.584-1.811-7.507-3.408-11.727-4.812
	c-3.612-14.809-5.874-30.997-6.458-47.922h60.374v42.683c-5.185,5.374-9.511,11.015-12.972,16.91
	C160.374,257.346,153.042,256.365,145.958,255.082z M283.15,335.761c-18.952,9.575-36.269,14.429-51.467,14.429
	c-20.277,0-33.407-8.66-41.821-18.749l121.154-77.605l-128.918,65.723c-0.026-0.052-0.055-0.105-0.081-0.157
	c-17.251-34.151-0.178-67.36,46.84-91.112c18.769-9.482,45.89-14.29,80.61-14.29c28.598,0,55.445,3.379,70.071,5.613
	C365.815,245.721,326.911,313.652,283.15,335.761z"/>
</svg>